# Blender 4.2.1 LTS
# www.blender.org
mtllib SquareCorner3.mtl
o obj_0
v 0.973750 0.023750 -0.023750
v 0.973750 -0.023750 -0.023750
v 0.023750 -0.023750 -0.023750
v 0.023750 -0.973750 -0.023750
v -0.023750 -0.973750 -0.023750
v -0.023750 0.023750 -0.023750
v 0.973750 -0.023750 0.023750
v 0.973750 0.023750 0.023750
v 0.023750 -0.023750 0.023750
v -0.023750 -0.973750 0.023750
v 0.023750 -0.973750 0.023750
v -0.023750 0.023750 0.023750
vn -0.0000 -0.0000 -1.0000
vn -0.0000 -0.0000 1.0000
vn -0.0000 -1.0000 -0.0000
vn 1.0000 -0.0000 -0.0000
vn -0.0000 1.0000 -0.0000
vn -1.0000 -0.0000 -0.0000
s 0
usemtl color_15277357
f 1//1 2//1 3//1
f 4//1 5//1 3//1
f 3//1 5//1 6//1
f 3//1 6//1 1//1
f 7//2 8//2 9//2
f 9//2 10//2 11//2
f 10//2 9//2 12//2
f 8//2 12//2 9//2
f 2//3 7//3 9//3
f 2//3 9//3 3//3
f 8//4 7//4 2//4
f 8//4 2//4 1//4
f 3//4 9//4 11//4
f 3//4 11//4 4//4
f 12//5 8//5 6//5
f 1//5 6//5 8//5
f 12//6 6//6 10//6
f 5//6 10//6 6//6
f 11//3 10//3 5//3
f 11//3 5//3 4//3
